<svg width="26" height="26" viewBox="0 0 26 26" fill="none" xmlns="http://www.w3.org/2000/svg">
<path d="M13 26C20.1797 26 26 20.1797 26 13C26 5.8203 20.1797 0 13 0C5.8203 0 0 5.8203 0 13C0 20.1797 5.8203 26 13 26Z" fill="#4176FA"/>
<path d="M17.6604 10.739C13.9056 10.739 13.9007 14.4797 13.9007 14.4989C13.9007 14.4989 13.6435 18.2442 17.6604 18.2442C17.6604 18.2442 21.0104 18.4347 21.0104 15.6377H19.2903C19.2903 15.6377 19.3473 16.6907 17.7177 16.6907C17.7177 16.6907 15.9975 16.8051 15.9975 14.9895H21.0677C21.0677 14.9895 21.6252 10.739 17.6604 10.739ZM15.9783 13.679C15.9783 13.679 16.188 12.1732 17.6987 12.1732C19.214 12.1732 19.1901 13.679 19.1901 13.679H15.9783ZM11.6805 12.7166C11.6805 12.7166 13.1719 12.607 13.1719 10.8534C13.1719 9.10475 11.9521 8.24686 10.4034 8.24686H5.30908V18.0391H10.4029C10.4029 18.0391 13.5147 18.1346 13.5147 15.1468C13.5149 15.1468 13.6484 12.7166 11.6805 12.7166ZM7.55369 9.98604H10.4031C10.4031 9.98604 11.0942 9.98604 11.0942 11.0057C11.0942 12.0253 10.6891 12.1732 10.2268 12.1732H7.55369V9.98604ZM10.2604 16.3H7.55369V13.679H10.4031C10.4031 13.679 11.4374 13.6695 11.4325 15.0275C11.4325 16.1713 10.6655 16.2905 10.2604 16.3ZM15.5542 8.82342V10.0291H19.5952V8.82342H15.5542Z" fill="#F1F2F2"/>
</svg>
