<svg width="46" height="46" viewBox="0 0 46 46" fill="none" xmlns="http://www.w3.org/2000/svg">
<circle cx="23" cy="23" r="23" fill="#F5F5F5"/>
<path d="M14.575 16C14.3687 16 14.1728 16.0433 13.9926 16.1148L22.9012 23.8996C23.2863 24.236 23.6964 24.2363 24.0824 23.8996L33.0074 16.1148C32.8272 16.0433 32.6313 16 32.425 16H14.575ZM13.0164 17.3535C13.0065 17.4253 13 17.5004 13 17.575V28.075C13 28.9475 13.7025 29.65 14.575 29.65H32.425C33.2975 29.65 34 28.9475 34 28.075V17.575C34 17.5004 33.9935 17.4253 33.9836 17.3535L25.116 25.0891C24.1908 25.896 22.7927 25.8973 21.8676 25.0891L13.0164 17.3535Z" fill="#85859D"/>
</svg>
