<svg width="226" height="42" viewBox="0 0 226 42" fill="none" xmlns="http://www.w3.org/2000/svg">
<path d="M0.688138 41H9.00755V15.5796L28.2462 41H34.3702V0.558396H26.0508V25.9211L6.81215 0.558396H0.688138V41ZM72.7392 41.6933C81.983 41.6933 89.7247 36.147 89.7247 23.899V0.558396H81.4052V24.4189C81.4052 31.5251 77.2455 34.5293 72.7392 34.5293C68.2328 34.5293 64.0731 31.5251 64.0731 24.4189V0.558396H55.7537V23.899C55.7537 36.147 63.4954 41.6933 72.7392 41.6933ZM140.97 14.713C140.97 6.79796 134.962 0.558396 125.025 0.558396H111.101V41H119.421V28.752L131.264 41H141.837L129.011 28.4053C136.291 26.7877 140.97 21.7614 140.97 14.713ZM119.421 7.49124H124.852C129.416 7.49124 132.535 10.0333 132.535 14.8863C132.535 19.797 129.416 22.2813 123.696 22.2813H119.421V7.49124ZM160.588 0.558396V41H168.908V0.558396H160.588ZM216.71 41H225.376L209.026 0.558396H202.325L185.975 41H194.641L196.952 34.9915H214.399L216.71 41ZM205.676 12.3442L211.742 28.0587H199.609L205.676 12.3442Z" fill="#1D1D1B"/>
</svg>
