<svg width="46" height="46" viewBox="0 0 46 46" fill="none" xmlns="http://www.w3.org/2000/svg">
<circle cx="23" cy="23" r="23" fill="#F5F5F5"/>
<path d="M28.5431 10H17.9408C16.869 10 16 10.869 16 11.9408V34.1592C16 35.231 16.869 36.1 17.9408 36.1H28.572C29.6438 36.1 30.5129 35.231 30.5129 34.1592V11.9408C30.4839 10.869 29.6149 10 28.5431 10ZM21.3011 11.6801H25.1538C25.2987 11.6801 25.3856 11.796 25.3856 11.9119C25.3856 12.0567 25.2697 12.1436 25.1538 12.1436H21.3011C21.1563 12.1436 21.0694 12.0277 21.0694 11.9119C21.0694 11.796 21.1852 11.6801 21.3011 11.6801ZM23.242 35.1151C22.7205 35.1151 22.286 34.6806 22.286 34.1592C22.286 33.6377 22.7205 33.2032 23.242 33.2032C23.7634 33.2032 24.1979 33.6377 24.1979 34.1592C24.1979 34.6806 23.7634 35.1151 23.242 35.1151ZM29.528 32.2183H16.9559V13.8527H29.499V32.2183H29.528Z" fill="#85859D"/>
</svg>
